<svg width="48" height="10" viewBox="0 0 48 10" fill="none" xmlns="http://www.w3.org/2000/svg">
<path d="M6.04195 6.01921C5.84195 5.84588 5.64862 5.67921 5.46195 5.51921C5.28195 5.35921 5.10195 5.19921 4.92195 5.03921C4.74862 4.87921 4.57529 4.71921 4.40195 4.55921C4.22862 4.39921 4.04862 4.23254 3.86195 4.05921C3.48195 4.41921 3.09862 4.77254 2.71195 5.11921C2.33195 5.45921 1.94195 5.81254 1.54195 6.17921L0.711953 5.22921C1.09862 4.84921 1.46195 4.50254 1.80195 4.18921C2.14862 3.87588 2.48529 3.56254 2.81195 3.24921C2.92529 3.14254 3.01195 3.01588 3.07195 2.86921C3.13195 2.72254 3.16195 2.57254 3.16195 2.41921V2.35921H1.19195V1.13921H3.16195V0.139208H4.56195V1.13921H6.46195V2.35921H4.56195V2.41921C4.56195 2.57254 4.59195 2.72254 4.65195 2.86921C4.71195 3.01588 4.79862 3.14254 4.91195 3.24921C5.07195 3.40254 5.22195 3.54921 5.36195 3.68921C5.50862 3.82254 5.65862 3.96254 5.81195 4.10921C5.96529 4.24921 6.12195 4.39921 6.28195 4.55921C6.44862 4.71254 6.63195 4.88254 6.83195 5.06921L6.04195 6.01921ZM8.70195 9.03921H7.32195V0.209209H8.70195V9.03921ZM6.92195 8.10921H0.711953V6.88921H3.16195V5.49921H4.56195V6.88921H6.92195V8.10921ZM14.1512 5.52921C14.1512 5.87588 14.1045 6.19588 14.0112 6.48921C13.9178 6.77588 13.7812 7.02254 13.6012 7.22921C13.4212 7.43588 13.1978 7.59588 12.9312 7.70921C12.6712 7.82254 12.3745 7.87921 12.0412 7.87921C11.7078 7.87921 11.4078 7.82254 11.1412 7.70921C10.8812 7.59588 10.6612 7.43588 10.4812 7.22921C10.3012 7.02254 10.1645 6.77588 10.0712 6.48921C9.97784 6.19588 9.93117 5.87588 9.93117 5.52921V2.68921C9.93117 2.34254 9.97784 2.02588 10.0712 1.73921C10.1645 1.44588 10.3012 1.19588 10.4812 0.989209C10.6612 0.782542 10.8812 0.622542 11.1412 0.509208C11.4078 0.395875 11.7078 0.339209 12.0412 0.339209C12.3745 0.339209 12.6712 0.395875 12.9312 0.509208C13.1978 0.622542 13.4212 0.782542 13.6012 0.989209C13.7812 1.19588 13.9178 1.44588 14.0112 1.73921C14.1045 2.02588 14.1512 2.34254 14.1512 2.68921V5.52921ZM18.2012 9.02921H16.8412V4.62921H16.0612V8.77921H14.7212V0.309209H16.0612V3.30921H16.8412V0.209209H18.2012V9.02921ZM11.2912 5.37921C11.2912 5.77921 11.3412 6.09254 11.4412 6.31921C11.5478 6.54588 11.7478 6.65921 12.0412 6.65921C12.3345 6.65921 12.5312 6.54588 12.6312 6.31921C12.7378 6.09254 12.7912 5.77921 12.7912 5.37921V2.83921C12.7912 2.43921 12.7378 2.12588 12.6312 1.89921C12.5312 1.67254 12.3345 1.55921 12.0412 1.55921C11.7478 1.55921 11.5478 1.67254 11.4412 1.89921C11.3412 2.12588 11.2912 2.43921 11.2912 2.83921V5.37921ZM24.6604 4.06921C24.5204 4.38921 24.3271 4.66254 24.0804 4.88921C23.8404 5.11588 23.5504 5.29254 23.2104 5.41921C22.8771 5.54588 22.5104 5.60921 22.1104 5.60921C21.7104 5.60921 21.3404 5.54588 21.0004 5.41921C20.6671 5.29254 20.3771 5.11588 20.1304 4.88921C19.8904 4.66254 19.7004 4.38921 19.5604 4.06921C19.4204 3.74921 19.3504 3.39921 19.3504 3.01921C19.3504 2.63254 19.4204 2.28254 19.5604 1.96921C19.7004 1.64921 19.8904 1.37588 20.1304 1.14921C20.3771 0.922542 20.6671 0.745875 21.0004 0.619209C21.3404 0.492542 21.7104 0.429209 22.1104 0.429209C22.5104 0.429209 22.8771 0.492542 23.2104 0.619209C23.5504 0.745875 23.8404 0.922542 24.0804 1.14921C24.3271 1.37588 24.5204 1.64921 24.6604 1.96921C24.8004 2.28254 24.8704 2.63254 24.8704 3.01921C24.8704 3.39921 24.8004 3.74921 24.6604 4.06921ZM22.6704 4.28921C22.8437 4.21588 22.9904 4.11588 23.1104 3.98921C23.2304 3.86254 23.3237 3.71921 23.3904 3.55921C23.4571 3.39254 23.4904 3.21254 23.4904 3.01921C23.4904 2.82588 23.4571 2.64588 23.3904 2.47921C23.3237 2.31254 23.2304 2.16921 23.1104 2.04921C22.9904 1.92254 22.8437 1.82588 22.6704 1.75921C22.5037 1.68588 22.3171 1.64921 22.1104 1.64921C21.9037 1.64921 21.7137 1.68588 21.5404 1.75921C21.3737 1.82588 21.2304 1.92254 21.1104 2.04921C20.9904 2.16921 20.8971 2.31254 20.8304 2.47921C20.7637 2.64588 20.7304 2.82588 20.7304 3.01921C20.7304 3.21254 20.7637 3.39254 20.8304 3.55921C20.8971 3.71921 20.9904 3.86254 21.1104 3.98921C21.2304 4.11588 21.3737 4.21588 21.5404 4.28921C21.7137 4.35588 21.9037 4.38921 22.1104 4.38921C22.3171 4.38921 22.5037 4.35588 22.6704 4.28921ZM25.3204 7.90921H19.1104V6.68921H25.3204V7.90921ZM27.1004 9.03921H25.7204V0.209209H27.1004V9.03921ZM32.4596 5.55921C32.2129 5.55921 31.9863 5.51921 31.7796 5.43921C31.5796 5.35921 31.4063 5.24921 31.2596 5.10921C31.1129 4.96254 30.9996 4.78921 30.9196 4.58921C30.8396 4.38921 30.7996 4.17254 30.7996 3.93921C30.7996 3.70588 30.8396 3.48921 30.9196 3.28921C30.9996 3.08921 31.1129 2.91921 31.2596 2.77921C31.4063 2.63254 31.5796 2.51921 31.7796 2.43921C31.9863 2.35921 32.2129 2.31921 32.4596 2.31921H34.3596C34.6063 2.31921 34.8296 2.35921 35.0296 2.43921C35.2363 2.51921 35.4129 2.63254 35.5596 2.77921C35.7063 2.91921 35.8196 3.08921 35.8996 3.28921C35.9796 3.48921 36.0196 3.70588 36.0196 3.93921C36.0196 4.17254 35.9796 4.38921 35.8996 4.58921C35.8196 4.78921 35.7063 4.96254 35.5596 5.10921C35.4129 5.24921 35.2363 5.35921 35.0296 5.43921C34.8296 5.51921 34.6063 5.55921 34.3596 5.55921H32.4596ZM38.3296 9.05921H36.9496V7.16921H31.4896V6.00921H38.3296V9.05921ZM38.3296 5.66921H36.9496V0.209209H38.3296V2.38921H39.4496V3.65921H38.3296V5.66921ZM36.2296 1.96921H30.5696V0.839208H32.7196V0.0392085H34.0996V0.839208H36.2296V1.96921ZM33.9596 4.42921C34.1529 4.42921 34.3129 4.38921 34.4396 4.30921C34.5729 4.22254 34.6396 4.09921 34.6396 3.93921C34.6396 3.77921 34.5729 3.65921 34.4396 3.57921C34.3129 3.49254 34.1529 3.44921 33.9596 3.44921H32.8596C32.6663 3.44921 32.5029 3.49254 32.3696 3.57921C32.2429 3.65921 32.1796 3.77921 32.1796 3.93921C32.1796 4.09921 32.2429 4.22254 32.3696 4.30921C32.5029 4.38921 32.6663 4.42921 32.8596 4.42921H33.9596ZM47.8788 5.18921H46.4988V0.209209H47.8788V5.18921ZM47.8788 9.05921H46.4988V6.74921H40.8788V5.52921H47.8788V9.05921ZM45.0688 5.01921C44.6688 4.70588 44.2988 4.40921 43.9588 4.12921C43.6255 3.84921 43.2755 3.53921 42.9088 3.19921C42.5288 3.54588 42.1488 3.88254 41.7688 4.20921C41.3955 4.52921 41.0088 4.85254 40.6088 5.17921L39.7788 4.22921C40.1655 3.89588 40.5255 3.58254 40.8588 3.28921C41.1988 2.98921 41.5322 2.68921 41.8588 2.38921C41.9722 2.28921 42.0588 2.16588 42.1188 2.01921C42.1788 1.86588 42.2088 1.71254 42.2088 1.55921V0.339209H43.6088V1.55921C43.6088 1.71254 43.6388 1.86588 43.6988 2.01921C43.7588 2.16588 43.8455 2.28921 43.9588 2.38921C44.1188 2.53588 44.2688 2.67588 44.4088 2.80921C44.5555 2.93588 44.7022 3.06588 44.8488 3.19921C44.9955 3.33254 45.1488 3.46921 45.3088 3.60921C45.4755 3.74921 45.6588 3.90254 45.8588 4.06921L45.0688 5.01921Z" fill="black"/>
</svg>
