<svg width="25" height="25" viewBox="0 0 25 25" fill="none" xmlns="http://www.w3.org/2000/svg">
<g id="list">
<path id="Icon" d="M21.875 12.5L9.375 12.5M21.875 6.25004L9.375 6.25004M21.875 18.75L9.375 18.75M5.20833 12.5C5.20833 13.0753 4.74196 13.5417 4.16667 13.5417C3.59137 13.5417 3.125 13.0753 3.125 12.5C3.125 11.9247 3.59137 11.4584 4.16667 11.4584C4.74196 11.4584 5.20833 11.9247 5.20833 12.5ZM5.20833 6.25004C5.20833 6.82534 4.74196 7.29171 4.16667 7.29171C3.59137 7.29171 3.125 6.82534 3.125 6.25004C3.125 5.67474 3.59137 5.20837 4.16667 5.20837C4.74196 5.20837 5.20833 5.67474 5.20833 6.25004ZM5.20833 18.75C5.20833 19.3253 4.74196 19.7917 4.16667 19.7917C3.59137 19.7917 3.125 19.3253 3.125 18.75C3.125 18.1747 3.59137 17.7084 4.16667 17.7084C4.74196 17.7084 5.20833 18.1747 5.20833 18.75Z" stroke="#444444" stroke-width="2" stroke-linecap="round" stroke-linejoin="round"/>
</g>
</svg>
