<svg width="15" height="15" viewBox="0 0 15 15" fill="none" xmlns="http://www.w3.org/2000/svg">
<path d="M3.125 1.875L1.25 3.75M13.75 3.75L11.875 1.875M3.75 11.875L2.5 13.125M11.25 11.875L12.5 13.125M7.5 5.625V8.125L8.75 9.375M7.5 13.125C8.82608 13.125 10.0979 12.5982 11.0355 11.6605C11.9732 10.7229 12.5 9.45108 12.5 8.125C12.5 6.79892 11.9732 5.52715 11.0355 4.58947C10.0979 3.65178 8.82608 3.125 7.5 3.125C6.17392 3.125 4.90215 3.65178 3.96447 4.58947C3.02678 5.52715 2.5 6.79892 2.5 8.125C2.5 9.45108 3.02678 10.7229 3.96447 11.6605C4.90215 12.5982 6.17392 13.125 7.5 13.125Z" stroke="#A1A1A1" stroke-width="1.5" stroke-linecap="round" stroke-linejoin="round"/>
</svg>
