<svg width="9" height="9" viewBox="0 0 9 9" fill="none" xmlns="http://www.w3.org/2000/svg">
<g clip-path="url(#clip0_592_157)">
<path d="M2.8125 3.9375H2.81625M4.5 3.9375H4.50375M6.1875 3.9375H6.19125M2.625 6.75V7.62581C2.625 7.82563 2.625 7.92554 2.66596 7.97686C2.70158 8.02148 2.7556 8.04744 2.8127 8.04738C2.87836 8.04731 2.95638 7.9849 3.11241 7.86007L4.00695 7.14444C4.18969 6.99825 4.28106 6.92515 4.38281 6.87317C4.47307 6.82705 4.56916 6.79335 4.66846 6.77297C4.78038 6.75 4.89739 6.75 5.13141 6.75H6.075C6.70506 6.75 7.02009 6.75 7.26074 6.62738C7.47242 6.51952 7.64452 6.34742 7.75238 6.13574C7.875 5.89509 7.875 5.58006 7.875 4.95V2.925C7.875 2.29494 7.875 1.97991 7.75238 1.73926C7.64452 1.52758 7.47242 1.35548 7.26074 1.24762C7.02009 1.125 6.70506 1.125 6.075 1.125H2.925C2.29494 1.125 1.97991 1.125 1.73926 1.24762C1.52758 1.35548 1.35548 1.52758 1.24762 1.73926C1.125 1.97991 1.125 2.29494 1.125 2.925V5.25C1.125 5.59874 1.125 5.77311 1.16333 5.91617C1.26736 6.3044 1.5706 6.60764 1.95883 6.71167C2.10189 6.75 2.27626 6.75 2.625 6.75ZM3 3.9375C3 4.04105 2.91605 4.125 2.8125 4.125C2.70895 4.125 2.625 4.04105 2.625 3.9375C2.625 3.83395 2.70895 3.75 2.8125 3.75C2.91605 3.75 3 3.83395 3 3.9375ZM4.6875 3.9375C4.6875 4.04105 4.60355 4.125 4.5 4.125C4.39645 4.125 4.3125 4.04105 4.3125 3.9375C4.3125 3.83395 4.39645 3.75 4.5 3.75C4.60355 3.75 4.6875 3.83395 4.6875 3.9375ZM6.375 3.9375C6.375 4.04105 6.29105 4.125 6.1875 4.125C6.08395 4.125 6 4.04105 6 3.9375C6 3.83395 6.08395 3.75 6.1875 3.75C6.29105 3.75 6.375 3.83395 6.375 3.9375Z" stroke="#A1A1A1" stroke-width="0.8" stroke-linecap="round" stroke-linejoin="round"/>
</g>
<defs>
<clipPath id="clip0_592_157">
<rect width="9" height="9" fill="white"/>
</clipPath>
</defs>
</svg>
