<svg width="15" height="15" viewBox="0 0 15 15" fill="none" xmlns="http://www.w3.org/2000/svg">
<g id="alert-triangle">
<path id="Icon" d="M7.49985 5.6249V8.1249M7.49985 10.6249H7.5061M6.63442 2.43223L1.49387 11.3114C1.20874 11.8039 1.06617 12.0501 1.08725 12.2522C1.10562 12.4285 1.19798 12.5887 1.34133 12.6929C1.50568 12.8124 1.79022 12.8124 2.35929 12.8124H12.6404C13.2095 12.8124 13.494 12.8124 13.6584 12.6929C13.8017 12.5887 13.8941 12.4285 13.9124 12.2522C13.9335 12.0501 13.791 11.8039 13.5058 11.3114L8.36527 2.43222C8.08117 1.9415 7.93911 1.69614 7.75378 1.61373C7.59212 1.54184 7.40757 1.54184 7.24591 1.61373C7.06058 1.69614 6.91853 1.9415 6.63442 2.43223Z" stroke="#FF0000" stroke-linecap="round" stroke-linejoin="round"/>
</g>
</svg>
