<svg width="41" height="46" viewBox="0 0 41 46" fill="none" xmlns="http://www.w3.org/2000/svg">
<path d="M35.0305 20.6532C36.0844 20.1934 36.6113 19.9634 36.7593 19.6384C36.8874 19.3567 36.8835 19.0223 36.7488 18.7445C36.5933 18.4239 36.0612 18.2096 34.9969 17.7809L7.85203 6.84828C6.9813 6.49759 6.54593 6.32224 6.26131 6.43283C6.01386 6.52897 5.81939 6.74716 5.73369 7.02479C5.63513 7.34412 5.79141 7.83258 6.10398 8.8095L15.8482 39.2648C16.2303 40.4589 16.4213 41.0559 16.7071 41.2304C16.9546 41.3815 17.2527 41.3859 17.5038 41.2421C17.7935 41.0761 17.9984 40.4849 18.4083 39.3025L22.8445 26.5038C22.9248 26.2722 22.965 26.1563 23.027 26.0588C23.0819 25.9724 23.1493 25.8968 23.2263 25.8351C23.3133 25.7656 23.4165 25.7205 23.6229 25.6305L35.0305 20.6532Z" stroke="#444444" stroke-width="2" stroke-linecap="round" stroke-linejoin="round"/>
</svg>
