<svg width="45" height="45" viewBox="0 0 45 45" fill="none" xmlns="http://www.w3.org/2000/svg">
<g id="users-01">
<path id="Icon" d="M41.25 39.375V35.625C41.25 32.1303 38.8598 29.1939 35.625 28.3613M29.0625 6.17017C31.8111 7.28277 33.75 9.97746 33.75 13.125C33.75 16.2725 31.8111 18.9672 29.0625 20.0798M31.875 39.375C31.875 35.8804 31.875 34.1332 31.3041 32.7549C30.5429 30.9172 29.0828 29.4571 27.2451 28.6959C25.8668 28.125 24.1196 28.125 20.625 28.125H15C11.5054 28.125 9.75816 28.125 8.37987 28.6959C6.54216 29.4571 5.08211 30.9172 4.3209 32.7549C3.75 34.1332 3.75 35.8804 3.75 39.375M25.3125 13.125C25.3125 17.2671 21.9546 20.625 17.8125 20.625C13.6704 20.625 10.3125 17.2671 10.3125 13.125C10.3125 8.98286 13.6704 5.625 17.8125 5.625C21.9546 5.625 25.3125 8.98286 25.3125 13.125Z" stroke="white" stroke-width="2" stroke-linecap="round" stroke-linejoin="round"/>
</g>
</svg>
