<svg width="45" height="45" viewBox="0 0 45 45" fill="none" xmlns="http://www.w3.org/2000/svg">
<g id="list">
<path id="Icon" d="M39.375 22.5L16.875 22.5M39.375 11.25L16.875 11.25M39.375 33.75L16.875 33.75M9.375 22.5C9.375 23.5355 8.53553 24.375 7.5 24.375C6.46447 24.375 5.625 23.5355 5.625 22.5C5.625 21.4645 6.46447 20.625 7.5 20.625C8.53553 20.625 9.375 21.4645 9.375 22.5ZM9.375 11.25C9.375 12.2855 8.53553 13.125 7.5 13.125C6.46447 13.125 5.625 12.2855 5.625 11.25C5.625 10.2145 6.46447 9.375 7.5 9.375C8.53553 9.375 9.375 10.2145 9.375 11.25ZM9.375 33.75C9.375 34.7855 8.53553 35.625 7.5 35.625C6.46447 35.625 5.625 34.7855 5.625 33.75C5.625 32.7145 6.46447 31.875 7.5 31.875C8.53553 31.875 9.375 32.7145 9.375 33.75Z" stroke="white" stroke-width="2" stroke-linecap="round" stroke-linejoin="round"/>
</g>
</svg>
